HIERARCHY
ROOT Pelvis
{
	OFFSET 0.000000 0.000000 0.000000
	CHANNELS 6 Xposition Yposition Zposition Xrotation Yrotation Zrotation
	JOINT LeftUpLeg_virtual
	{
		OFFSET 0.000000 0.000000 0.000000
		CHANNELS 3 Xrotation Yrotation Zrotation
		JOINT LeftUpLeg
		{
			OFFSET 18.735201 -5.666702 -4.541200
			CHANNELS 3 Xrotation Yrotation Zrotation
			JOINT LeftLeg
			{
				OFFSET -0.021200 -31.938179 0.493100
				CHANNELS 3 Xrotation Yrotation Zrotation
				JOINT LeftFoot
				{
					OFFSET 0.021200 -31.938179 -4.336299
					CHANNELS 3 Xrotation Yrotation Zrotation
					JOINT LeftToeBase
					{
						OFFSET 0.943001 -26.722000 15.023500
						CHANNELS 3 Xrotation Yrotation Zrotation
						End Site
						{
							OFFSET 0 0 0
						}
					}
				}
			}
		}
	}
	JOINT RightUpLeg_virtual
	{
		OFFSET 0.000000 0.000000 0.000000
		CHANNELS 3 Xrotation Yrotation Zrotation
		JOINT RightUpLeg
		{
			OFFSET -18.735201 -5.666702 -4.541200
			CHANNELS 3 Xrotation Yrotation Zrotation
			JOINT RightLeg
			{
				OFFSET 0.018946 -31.938133 0.493100
				CHANNELS 3 Xrotation Yrotation Zrotation
				JOINT RightFoot
				{
					OFFSET -0.018946 -31.938126 -4.336299
					CHANNELS 3 Xrotation Yrotation Zrotation
					JOINT RightToeBase
					{
						OFFSET -0.943001 -26.722004 15.023500
						CHANNELS 3 Xrotation Yrotation Zrotation
						End Site
						{
							OFFSET 0 0 0
						}
					}
				}
			}
		}
	}
	JOINT Hips_virtual
	{
		OFFSET 0.000000 0.000000 0.000000
		CHANNELS 3 Xrotation Yrotation Zrotation
		JOINT Hips
		{
			OFFSET -0.000000 -0.000000 -0.000000
			CHANNELS 3 Xrotation Yrotation Zrotation
			JOINT Spine
			{
				OFFSET 0.000000 10.199997 -0.299500
				CHANNELS 3 Xrotation Yrotation Zrotation
				JOINT Spine1
				{
					OFFSET 0.000000 11.900002 -1.516600
					CHANNELS 3 Xrotation Yrotation Zrotation
					JOINT Spine2
					{
						OFFSET 0.000000 13.600006 -2.842500
						CHANNELS 3 Xrotation Yrotation Zrotation
						JOINT Neck_virtual
						{
							OFFSET 0.000000 0.000000 0.000000
							CHANNELS 3 Xrotation Yrotation Zrotation
							JOINT Neck
							{
								OFFSET 0.000000 9.624100 -2.890100
								CHANNELS 3 Xrotation Yrotation Zrotation
								JOINT Head
								{
									OFFSET 0.000000 14.068802 -1.351900
									CHANNELS 3 Xrotation Yrotation Zrotation
									End Site
									{
										OFFSET 0 0 0
									}
								}
							}
						}
						JOINT LeftShoulder_virtual
						{
							OFFSET 0.000000 0.000000 0.000000
							CHANNELS 3 Xrotation Yrotation Zrotation
							JOINT LeftShoulder
							{
								OFFSET 15.263000 10.923401 -0.547700
								CHANNELS 3 Xrotation Yrotation Zrotation
								JOINT LeftArm
								{
									OFFSET 25.438599 -2.830597 -13.032500
									CHANNELS 3 Xrotation Yrotation Zrotation
									JOINT LeftForeArm
									{
										OFFSET 29.960503 0.000000 0.000000
										CHANNELS 3 Xrotation Yrotation Zrotation
										JOINT LeftHand
										{
											OFFSET 27.849251 0.000000 0.000000
											CHANNELS 3 Xrotation Yrotation Zrotation
											End Site
											{
												OFFSET 0 0 0
											}
										}
									}
								}
							}
						}
						JOINT RightShoulder_virtual
						{
							OFFSET 0.000000 0.000000 0.000000
							CHANNELS 3 Xrotation Yrotation Zrotation
							JOINT RightShoulder
							{
								OFFSET -15.263000 10.923401 -0.547700
								CHANNELS 3 Xrotation Yrotation Zrotation
								JOINT RightArm
								{
									OFFSET -25.438599 -2.830597 -13.032500
									CHANNELS 3 Xrotation Yrotation Zrotation
									JOINT RightForeArm
									{
										OFFSET -29.960503 0.000000 0.000000
										CHANNELS 3 Xrotation Yrotation Zrotation
										JOINT RightHand
										{
											OFFSET -27.849251 0.000000 0.000000
											CHANNELS 3 Xrotation Yrotation Zrotation
											End Site
											{
												OFFSET 0 0 0
											}
										}
									}
								}
							}
						}
					}
				}
			}
		}
	}
}
MOTION
Frames: 4
Frame Time: 0.03333333
-5.606930 86.955658 -10.125805 0.000000 0.000000 0.000000 -118.252595 -69.729046 -109.645245 -87.326345 10.656315 -1.100124 99.162558 7.862846 -0.262682 50.985228 -0.658863 -26.662163 0.000000 0.000000 0.000000 -118.252595 -69.729046 -109.645245 -21.940589 -4.968597 -12.709251 69.362347 9.208100 -11.620498 -30.541867 6.879298 2.416506 0.000000 0.000000 0.000000 -118.252595 -69.729046 -109.645245 0.000000 0.000001 -0.000001 9.812415 0.868356 -3.287922 18.906124 -3.761473 -3.874849 0.000000 0.000000 0.000000 18.723654 -4.522475 -3.853600 -2.801300 4.922516 -3.667087 0.000000 0.000000 0.000000 18.723654 -4.522475 -3.853600 0.282741 0.179176 13.071516 32.111397 -78.597022 9.811145 -0.000429 -85.945076 -0.000380 0.000000 0.000000 0.000000 18.723654 -4.522475 -3.853600 0.992071 2.041777 -6.270034 18.277318 16.487260 79.854071 -179.999814 66.348048 179.999827 0.000000 0.000000 0.000000 
-5.403366 86.202751 -9.404024 0.000000 0.000000 0.000000 -113.635162 -71.759866 -105.420828 -85.891309 10.797616 -0.809513 96.569975 8.225687 -0.318813 50.876368 0.252001 -27.182106 0.000000 0.000000 0.000000 -113.635162 -71.759866 -105.420828 -23.588668 -5.599155 -13.273451 70.585074 9.158394 -11.435956 -31.456853 5.957685 2.766427 0.000000 0.000000 0.000000 -113.635162 -71.759866 -105.420828 0.000000 0.000000 0.000000 9.427503 0.381800 -2.877591 18.151096 -4.588262 -3.461616 0.000000 0.000000 0.000000 17.925020 -5.334596 -3.476044 -2.754162 4.944480 -3.757756 0.000000 0.000000 0.000000 17.925020 -5.334596 -3.476044 0.399623 -0.159362 13.088694 33.725446 -80.199398 9.691276 0.000181 -83.589194 0.000125 0.000000 0.000000 0.000000 17.925020 -5.334596 -3.476044 1.040106 2.300997 -7.202285 19.116801 15.966943 80.656570 -179.999909 70.014965 179.999909 0.000000 0.000000 0.000000 
-5.046690 85.533386 -8.525526 0.000000 0.000000 0.000000 -107.584796 -73.757041 -99.768669 -84.722636 10.708017 -0.292238 94.229276 8.403592 -0.266651 50.296594 1.641790 -27.427516 0.000000 0.000000 0.000000 -107.584796 -73.757041 -99.768669 -25.281933 -6.108722 -13.992370 71.498557 9.260156 -11.222619 -32.083017 4.955323 3.258641 0.000000 0.000000 0.000000 -107.584796 -73.757041 -99.768669 0.000000 0.000000 0.000000 9.069322 -0.218623 -2.537255 17.406274 -5.558947 -2.975144 0.000000 0.000000 0.000000 17.132162 -6.288933 -3.027431 -2.651857 4.971108 -3.865633 0.000000 0.000000 0.000000 17.132162 -6.288933 -3.027431 0.512519 -0.448810 12.754009 36.124529 -81.963759 10.429216 0.000070 -81.206585 0.000094 0.000000 0.000000 0.000000 17.132162 -6.288933 -3.027431 1.172500 2.893631 -8.492142 19.513333 15.461269 81.270543 -179.999431 74.760819 179.999431 0.000000 0.000000 0.000000 
-4.503010 84.941833 -7.514728 0.000000 0.000000 0.000000 -100.332235 -75.462239 -93.038433 -83.664394 10.088711 0.737785 92.244478 8.390812 -0.108281 49.101598 3.111418 -27.905424 0.000000 0.000000 0.000000 -100.332235 -75.462239 -93.038433 -26.878661 -6.348389 -14.554455 72.053202 9.410002 -11.023396 -32.319789 3.783172 3.938117 0.000000 0.000000 0.000000 -100.332235 -75.462239 -93.038433 0.000000 0.000000 0.000000 8.770605 -0.918375 -2.239419 16.741762 -6.608760 -2.446085 0.000000 0.000000 0.000000 16.421931 -7.314795 -2.537770 -2.523019 4.999043 -3.948168 0.000000 0.000000 0.000000 16.421931 -7.314795 -2.537770 0.598622 -0.623098 12.009458 41.134743 -83.681087 14.163380 -0.000070 -79.192922 -0.000082 0.000000 0.000000 0.000000 16.421931 -7.314795 -2.537770 1.395000 3.755585 -9.879452 19.344839 14.808216 81.636395 179.996289 80.536892 -179.996330 0.000000 0.000000 0.000000 
